<svg xmlns="http://www.w3.org/2000/svg"  viewBox="0 0 41.51 37.95" overflow="visible">
  <style>
    .st0{opacity:.5;fill:#fbb03c}
  </style>
  <path class="st0" d="M20.71 9.43c-6.24.03-11.29 5.11-11.27 11.36.02 4.18 2.29 7.82 5.68 9.77l1.14-1.99c0-.01.02-.03.02-.05.42-.77.28-1.74-.36-2.33 0-.01-.02-.02-.03-.03-.11-.1-.22-.21-.32-.32-.1-.09-.19-.2-.28-.3-.05-.04-.08-.09-.13-.15-.07-.09-.14-.17-.21-.27a.102.102 0 01-.05-.06c-.1-.12-.18-.24-.26-.37-.19-.28-.36-.58-.5-.9-.05-.11-.1-.22-.14-.33-.03-.05-.04-.1-.06-.16-.08-.2-.15-.41-.2-.63-.03-.09-.05-.17-.07-.27a5.22 5.22 0 01-.16-1.05l-.03-.38v-.06c0-.17 0-.35.01-.51.01-.15.01-.3.05-.47 0-.06.01-.12.01-.18.05-.29.1-.57.18-.84.07-.24.14-.48.23-.72a7.237 7.237 0 014.18-4.23c.14-.07.29-.11.44-.16.14-.05.3-.1.45-.13.21-.05.43-.09.65-.13.17-.02.33-.05.5-.06.12-.01.24-.02.36-.02.03-.01.06 0 .09 0 .25 0 .49 0 .73.03.13.01.26.02.39.05.86.11 1.68.38 2.42.77.11.06.23.12.33.19.42.24.81.54 1.15.85.24.21.45.43.65.67.1.12.21.26.3.39.46.62.81 1.3 1.06 2.03.1.28.18.58.23.89.06.29.1.6.12.91a7.702 7.702 0 01-.02 1.34c-.02.2-.06.4-.1.61-.01.05-.01.1-.03.15-.05.18-.09.37-.14.54-.02.08-.05.15-.07.23-.07.2-.15.4-.24.59a6.65 6.65 0 01-.69 1.22c-.03.04-.06.08-.08.12-.13.17-.26.33-.4.5-.01 0-.02.01-.03.03-.13.14-.26.28-.4.42-.04.03-.07.07-.11.11-.66.62-.83 1.6-.41 2.4l.03.05 1.15 1.97c3.38-1.96 5.63-5.62 5.62-9.8-.04-6.25-5.13-11.31-11.38-11.29z"/>
  <path class="st0" d="M20.7 4.45c-9 .03-16.27 7.35-16.24 16.35.03 6.02 3.31 11.26 8.19 14.06l2.47-4.31 1.14-1.99c0-.01.02-.03.02-.05.42-.77.28-1.74-.36-2.33 0-.01-.02-.02-.03-.03-.11-.1-.22-.21-.32-.32-.1-.09-.19-.2-.28-.3-.05-.04-.08-.09-.13-.15-.07-.09-.14-.17-.21-.27a.102.102 0 01-.05-.06c-.1-.12-.18-.24-.26-.37-.19-.28-.36-.58-.5-.9-.05-.11-.1-.22-.14-.33-.03-.05-.04-.1-.06-.16-.08-.2-.15-.41-.2-.63-.03-.09-.05-.17-.07-.27a5.22 5.22 0 01-.16-1.05l-.03-.38v-.06c0-.17 0-.35.01-.51.01-.15.01-.3.05-.47 0-.06.01-.12.01-.18.05-.29.1-.57.18-.84.07-.24.14-.48.23-.72a7.237 7.237 0 014.18-4.23c.14-.07.29-.11.44-.16.14-.05.3-.1.45-.13.21-.05.43-.09.65-.13.17-.02.33-.05.5-.06.12-.01.24-.02.36-.02.03-.01.06 0 .09 0 .25 0 .49 0 .73.03.13.01.26.02.39.05.86.11 1.68.38 2.42.77.11.06.23.12.33.19.42.24.81.54 1.15.85.24.21.45.43.65.67.1.12.21.26.3.39.46.62.81 1.3 1.06 2.03.1.28.18.58.23.89.06.29.1.6.12.91a7.702 7.702 0 01-.02 1.34c-.02.2-.06.4-.1.61-.01.05-.01.1-.03.15-.05.18-.09.37-.14.54-.02.08-.05.15-.07.23-.07.2-.15.4-.24.59a6.65 6.65 0 01-.69 1.22c-.03.04-.06.08-.08.12-.13.17-.26.33-.4.5-.01 0-.02.01-.03.03-.13.14-.26.28-.4.42-.04.03-.07.07-.11.11-.66.62-.83 1.6-.41 2.4l.03.05 1.15 1.97 2.51 4.3c4.85-2.83 8.11-8.11 8.08-14.13C37.02 11.7 29.7 4.42 20.7 4.45z"/>
  <path class="st0" d="M20.68 0C9.22.04-.04 9.36 0 20.83c0 .45.02.91.05 1.35.03.44.07.89.13 1.32.06.44.13.87.21 1.3.43 2.14 1.18 4.17 2.21 6.03.15.28.32.56.49.82.06.1.12.19.18.29.17.28.35.55.54.81.17.24.35.49.54.72l.21.27c.29.37.61.73.92 1.07.28.3.56.59.86.88.37.37.77.71 1.18 1.05.18.16.36.31.55.44.17.14.35.28.54.42.02.01.04.03.07.04.93.62 2.22.29 2.78-.69l1.19-2.07 2.47-4.31 1.14-1.99c0-.01.02-.03.02-.05.42-.77.28-1.74-.36-2.33 0-.01-.02-.02-.03-.03-.11-.1-.22-.21-.32-.32-.1-.09-.19-.2-.28-.3-.05-.04-.08-.09-.13-.15-.07-.09-.14-.17-.21-.27a.102.102 0 01-.05-.06c-.1-.12-.18-.24-.26-.37-.19-.28-.36-.58-.5-.9-.05-.11-.1-.22-.14-.33-.03-.05-.04-.1-.06-.16-.08-.2-.15-.41-.2-.63-.03-.09-.05-.17-.07-.27a5.22 5.22 0 01-.16-1.05l-.03-.38v-.06c0-.17 0-.35.01-.51.01-.15.01-.3.05-.47 0-.06.01-.12.01-.18.05-.29.1-.57.18-.84.07-.24.14-.48.23-.72a7.237 7.237 0 014.18-4.23c.14-.07.29-.11.44-.16.14-.05.3-.1.45-.13.21-.05.43-.09.65-.13.17-.02.33-.05.5-.06.12-.01.24-.02.36-.02.03-.01.06 0 .09 0 .25 0 .49 0 .73.03.13.01.26.02.39.05.86.11 1.68.38 2.42.77.11.06.23.12.33.19.42.24.81.54 1.15.85.24.21.45.43.65.67.1.12.21.26.3.39.46.62.81 1.3 1.06 2.03.1.28.18.58.23.89.06.29.1.6.12.91a7.702 7.702 0 01-.02 1.34c-.02.2-.06.4-.1.61-.01.05-.01.1-.03.15-.05.18-.09.37-.14.54-.02.08-.05.15-.07.23-.07.2-.15.4-.24.59a6.65 6.65 0 01-.69 1.22c-.03.04-.06.08-.08.12-.13.17-.26.33-.4.5-.01 0-.02.01-.03.03-.13.14-.26.28-.4.42-.04.03-.07.07-.11.11-.66.62-.83 1.6-.41 2.4l.03.05 1.15 1.97 2.51 4.3 1.19 2.05a1.977 1.977 0 002.86.63h.01c.3-.22.59-.45.86-.68.05-.03.09-.07.14-.11.28-.23.55-.46.81-.71.04-.03.09-.07.12-.11.24-.22.47-.45.7-.69l.25-.25c.2-.23.41-.45.61-.68a.12.12 0 01.05-.05c.21-.27.43-.53.63-.79.03-.04.06-.08.08-.11.2-.27.4-.54.59-.81.07-.11.15-.21.2-.31.19-.29.38-.58.55-.88.2-.34.38-.68.56-1.02.01 0 .02-.02.02-.04.15-.3.3-.6.43-.91.05-.08.09-.17.13-.26.1-.24.2-.49.3-.73.08-.19.16-.4.23-.61.06-.15.12-.31.17-.49.08-.2.15-.42.21-.65.08-.26.16-.53.21-.8.03-.11.05-.21.08-.31.08-.29.13-.57.19-.86.05-.27.1-.55.12-.81.03-.14.05-.28.06-.41.06-.38.1-.78.12-1.16.01-.06.02-.11.01-.16.04-.46.05-.93.05-1.4C41.47 9.22 32.15-.04 20.68 0z"/>
</svg>